<svg width="187" height="40" viewBox="0 0 187 40" fill="none" xmlns="http://www.w3.org/2000/svg">
<path d="M72.9438 14.512C74.5758 14.512 75.8878 15.016 76.8798 16.024C77.8878 17.016 78.3918 18.408 78.3918 20.2V28H75.0318V20.656C75.0318 19.616 74.7678 18.824 74.2398 18.28C73.7118 17.72 72.9918 17.44 72.0798 17.44C71.1678 17.44 70.4398 17.72 69.8958 18.28C69.3678 18.824 69.1038 19.616 69.1038 20.656V28H65.7438V20.656C65.7438 19.616 65.4798 18.824 64.9518 18.28C64.4238 17.72 63.7038 17.44 62.7918 17.44C61.8638 17.44 61.1278 17.72 60.5838 18.28C60.0558 18.824 59.7918 19.616 59.7918 20.656V28H56.4318V14.704H59.7918V16.312C60.2238 15.752 60.7758 15.312 61.4478 14.992C62.1358 14.672 62.8878 14.512 63.7038 14.512C64.7438 14.512 65.6718 14.736 66.4878 15.184C67.3038 15.616 67.9358 16.24 68.3838 17.056C68.8158 16.288 69.4398 15.672 70.2558 15.208C71.0878 14.744 71.9838 14.512 72.9438 14.512ZM94.3002 14.704L86.0682 34.288H82.4922L85.3722 27.664L80.0442 14.704H83.8122L87.2442 23.992L90.7242 14.704H94.3002ZM118.342 14.512C119.974 14.512 121.286 15.016 122.278 16.024C123.286 17.016 123.79 18.408 123.79 20.2V28H120.43V20.656C120.43 19.616 120.166 18.824 119.638 18.28C119.11 17.72 118.39 17.44 117.478 17.44C116.566 17.44 115.838 17.72 115.294 18.28C114.766 18.824 114.502 19.616 114.502 20.656V28H111.142V20.656C111.142 19.616 110.878 18.824 110.35 18.28C109.822 17.72 109.102 17.44 108.19 17.44C107.262 17.44 106.526 17.72 105.982 18.28C105.454 18.824 105.19 19.616 105.19 20.656V28H101.83V14.704H105.19V16.312C105.622 15.752 106.174 15.312 106.846 14.992C107.534 14.672 108.286 14.512 109.102 14.512C110.142 14.512 111.07 14.736 111.886 15.184C112.702 15.616 113.334 16.24 113.782 17.056C114.214 16.288 114.838 15.672 115.654 15.208C116.486 14.744 117.382 14.512 118.342 14.512ZM132.883 28.216C131.603 28.216 130.451 27.936 129.427 27.376C128.403 26.8 127.595 25.992 127.003 24.952C126.427 23.912 126.139 22.712 126.139 21.352C126.139 19.992 126.435 18.792 127.027 17.752C127.635 16.712 128.459 15.912 129.499 15.352C130.539 14.776 131.699 14.488 132.979 14.488C134.259 14.488 135.419 14.776 136.459 15.352C137.499 15.912 138.315 16.712 138.907 17.752C139.515 18.792 139.819 19.992 139.819 21.352C139.819 22.712 139.507 23.912 138.883 24.952C138.275 25.992 137.443 26.8 136.387 27.376C135.347 27.936 134.179 28.216 132.883 28.216ZM132.883 25.288C133.491 25.288 134.059 25.144 134.587 24.856C135.131 24.552 135.563 24.104 135.883 23.512C136.203 22.92 136.363 22.2 136.363 21.352C136.363 20.088 136.027 19.12 135.355 18.448C134.699 17.76 133.891 17.416 132.931 17.416C131.971 17.416 131.163 17.76 130.507 18.448C129.867 19.12 129.547 20.088 129.547 21.352C129.547 22.616 129.859 23.592 130.483 24.28C131.123 24.952 131.923 25.288 132.883 25.288ZM149.651 14.512C151.235 14.512 152.515 15.016 153.491 16.024C154.467 17.016 154.955 18.408 154.955 20.2V28H151.595V20.656C151.595 19.6 151.331 18.792 150.803 18.232C150.275 17.656 149.555 17.368 148.643 17.368C147.715 17.368 146.979 17.656 146.435 18.232C145.907 18.792 145.643 19.6 145.643 20.656V28H142.283V14.704H145.643V16.36C146.091 15.784 146.659 15.336 147.347 15.016C148.051 14.68 148.819 14.512 149.651 14.512ZM170.511 21.064C170.511 21.544 170.479 21.976 170.415 22.36H160.695C160.775 23.32 161.111 24.072 161.703 24.616C162.295 25.16 163.023 25.432 163.887 25.432C165.135 25.432 166.023 24.896 166.551 23.824H170.175C169.791 25.104 169.055 26.16 167.967 26.992C166.879 27.808 165.543 28.216 163.959 28.216C162.679 28.216 161.527 27.936 160.503 27.376C159.495 26.8 158.703 25.992 158.127 24.952C157.567 23.912 157.287 22.712 157.287 21.352C157.287 19.976 157.567 18.768 158.127 17.728C158.687 16.688 159.471 15.888 160.479 15.328C161.487 14.768 162.647 14.488 163.959 14.488C165.223 14.488 166.351 14.76 167.343 15.304C168.351 15.848 169.127 16.624 169.671 17.632C170.231 18.624 170.511 19.768 170.511 21.064ZM167.031 20.104C167.015 19.24 166.703 18.552 166.095 18.04C165.487 17.512 164.743 17.248 163.863 17.248C163.031 17.248 162.327 17.504 161.751 18.016C161.191 18.512 160.847 19.208 160.719 20.104H167.031ZM185.683 14.704L177.451 34.288H173.875L176.755 27.664L171.427 14.704H175.195L178.627 23.992L182.107 14.704H185.683Z" fill="white"/>
<path d="M34.1422 5.85781C30.3647 2.08031 25.3422 0 20 0C14.6578 0 9.63531 2.08031 5.85781 5.85781C2.08031 9.63531 0 14.6578 0 20C0 25.3422 2.08039 30.3646 5.85781 34.1422C9.63523 37.9198 14.6578 40 20 40C25.3422 40 30.3647 37.9197 34.1422 34.1422C37.9197 30.3647 40 25.3422 40 20C40 14.6578 37.9196 9.63539 34.1422 5.85781Z" fill="#33CC95"/>
<g clip-path="url(#clip0_35212_417)">
<path d="M20.5714 8V33.1429" stroke="white" stroke-width="2" stroke-linecap="round" stroke-linejoin="round"/>
<path d="M26.2857 12.5714H17.7143C16.6534 12.5714 15.636 12.9929 14.8859 13.743C14.1357 14.4931 13.7143 15.5106 13.7143 16.5714C13.7143 17.6323 14.1357 18.6497 14.8859 19.3999C15.636 20.15 16.6534 20.5714 17.7143 20.5714H23.4286C24.4894 20.5714 25.5069 20.9929 26.257 21.743C27.0072 22.4932 27.4286 23.5106 27.4286 24.5714C27.4286 25.6323 27.0072 26.6497 26.257 27.3999C25.5069 28.15 24.4894 28.5714 23.4286 28.5714H13.7143" stroke="white" stroke-width="2" stroke-linecap="round" stroke-linejoin="round"/>
</g>
<defs>
<clipPath id="clip0_35212_417">
<rect width="27.4286" height="27.4286" fill="white" transform="translate(6.85715 6.85714)"/>
</clipPath>
</defs>
</svg>
